<?xml version="1.0" encoding="UTF-8" standalone="no"?>
<!-- Created with Inkscape (http://www.inkscape.org/) -->

<svg
   xmlns:dc="http://purl.org/dc/elements/1.1/"
   xmlns:cc="http://creativecommons.org/ns#"
   xmlns:rdf="http://www.w3.org/1999/02/22-rdf-syntax-ns#"
   xmlns:svg="http://www.w3.org/2000/svg"
   xmlns="http://www.w3.org/2000/svg"
   xmlns:sodipodi="http://sodipodi.sourceforge.net/DTD/sodipodi-0.dtd"
   xmlns:inkscape="http://www.inkscape.org/namespaces/inkscape"
   width="410.80963"
   height="687.64502"
   id="svg2"
   version="1.1"
   inkscape:version="0.48.4 r9939"
   sodipodi:docname="DC-Comics-Logo.svg">
  <defs
     id="defs4">
    <linearGradient
       spreadMethod="pad"
       gradientTransform="matrix(0.906308,0.422618,-0.422618,0.906308,161.185,380.95)"
       gradientUnits="userSpaceOnUse"
       id="linearGradient66"
       y2="1320.9985"
       x2="4836.1401"
       y1="1679.7201"
       x1="852.01959">
      <stop
         offset="0"
         style="stop-color:#48a5db;stop-opacity:1"
         id="stop68" />
      <stop
         offset="0.23497091"
         style="stop-color:#3793cf;stop-opacity:1"
         id="stop70" />
      <stop
         offset="0.55297679"
         style="stop-color:#ffffff;stop-opacity:1"
         id="stop72" />
      <stop
         offset="0.67921627"
         style="stop-color:#ffffff;stop-opacity:1"
         id="stop74" />
      <stop
         offset="0.81401002"
         style="stop-color:#c2e0f1;stop-opacity:1"
         id="stop76" />
      <stop
         offset="1"
         style="stop-color:#b8d9ef;stop-opacity:1"
         id="stop78" />
    </linearGradient>
    <clipPath
       id="clipPath62">
      <path
         id="path64"
         inkscape:connector-curvature="0"
         d="M 1260.53,5405.07 C 1338.74,5211.63 938.625,4628.95 781.281,4210.16 l 0.055,0 c -69.711,-168.12 -108.227,-352.46 -108.227,-545.8 0,-758.3 591.841,-1378.25 1338.771,-1423.38 l -0.04,-0.1 c 216.87,-16.2 303.6,1.34 442,17.01 46.54,5.27 82.36,-8.41 96.75,-43.98 -430.03,1063.72 -860.04,2127.43 -1290.06,3191.16 z" />
    </clipPath>
    <linearGradient
       spreadMethod="pad"
       gradientTransform="matrix(0.926529,0.376224,-0.376224,0.926529,133.752,368.667)"
       gradientUnits="userSpaceOnUse"
       id="linearGradient42"
       y2="131.97281"
       x2="4506.5337"
       y1="0"
       x1="-170.425">
      <stop
         offset="0"
         style="stop-color:#4189ca;stop-opacity:1"
         id="stop44" />
      <stop
         offset="0.203125"
         style="stop-color:#2f65b7;stop-opacity:1"
         id="stop46" />
      <stop
         offset="0.38281301"
         style="stop-color:#2d65b6;stop-opacity:1"
         id="stop48" />
      <stop
         offset="0.5625"
         style="stop-color:#23529a;stop-opacity:1"
         id="stop50" />
      <stop
         offset="0.65625"
         style="stop-color:#173260;stop-opacity:1"
         id="stop52" />
      <stop
         offset="1"
         style="stop-color:#182750;stop-opacity:1"
         id="stop54" />
    </linearGradient>
    <clipPath
       id="clipPath38">
      <path
         id="path40"
         inkscape:connector-curvature="0"
         d="m 117.359,5502.34 987.531,0 c 70.54,0 133.47,-49.65 155.64,-97.27 l 306.59,-758.39 644.83,-1595.08 338.64,-837.69 c 10.83,-26.83 11.99,-62.18 -16.49,-81.87 -273.79,-165.6 -594.8,-261.02 -938.15,-261.02 l 0,0 -1478.591,0 0,3631.32 z" />
    </clipPath>
    <clipPath
       id="clipPath24">
      <path
         id="path26"
         inkscape:connector-curvature="0"
         d="m 1.48438,1600.86 0,4069.61 2638.89562,0 0,-4069.61 -2638.89562,0" />
    </clipPath>
    <clipPath
       id="clipPath18">
      <path
         id="path20"
         inkscape:connector-curvature="0"
         d="m 1153.24,5670.47 -48.35,-168.13 c 70.54,0 133.47,-49.65 155.65,-97.27 L 2550.58,2213.91 c 11.19,-27.67 12.07,-64.38 -19.2,-83.66 L 2640.33,1991.88 2119.69,1600.93 1.48438,1637.34 11.9844,5598.66 1153.24,5670.47 z" />
    </clipPath>
  </defs>
  <sodipodi:namedview
     id="base"
     pagecolor="#ffffff"
     bordercolor="#666666"
     borderopacity="1.0"
     inkscape:pageopacity="0.0"
     inkscape:pageshadow="2"
     inkscape:zoom="0.98994949"
     inkscape:cx="231.90822"
     inkscape:cy="211.08798"
     inkscape:document-units="px"
     inkscape:current-layer="layer1"
     showgrid="false"
     inkscape:window-width="1366"
     inkscape:window-height="706"
     inkscape:window-x="-8"
     inkscape:window-y="-8"
     inkscape:window-maximized="1"
     fit-margin-top="0"
     fit-margin-left="0"
     fit-margin-right="0"
     fit-margin-bottom="0" />
  <metadata
     id="metadata7">
    <rdf:RDF>
      <cc:Work
         rdf:about="">
        <dc:format>image/svg+xml</dc:format>
        <dc:type
           rdf:resource="http://purl.org/dc/dcmitype/StillImage" />
        <dc:title></dc:title>
      </cc:Work>
    </rdf:RDF>
  </metadata>
  <g
     inkscape:label="Layer 1"
     inkscape:groupmode="layer"
     id="layer1"
     transform="translate(72.21472,-829.5835)">
    <g
       id="g10"
       transform="matrix(1.25,0,0,-1.25,-86.637595,1517.376)">
      <g
         id="g12"
         transform="scale(0.1,0.1)">
        <g
           id="g14">
          <g
             id="g16"
             clip-path="url(#clipPath18)">
            <g
               id="g22"
               clip-path="url(#clipPath24)">
              <g
                 id="g28"
                 transform="matrix(2638.9,0,0,-4069.62,1.48438,5670.47)" />
            </g>
          </g>
        </g>
        <path
           style="fill:#000000;fill-opacity:1;fill-rule:evenodd;stroke:none"
           id="path32"
           inkscape:connector-curvature="0"
           d="m 117.359,5502.34 1478.591,0 0,0 c 938.96,0 1711.41,-712.77 1805.91,-1626.73 l -969,0 c -82.72,416.45 -433.98,736.16 -865.74,771.07 L 2211.95,3051.6 c 105.94,120.57 182.25,267.85 217.5,430.43 l 970.61,0 c -101.7,-906.4 -870.54,-1611 -1804.11,-1611.01 l -1478.591,0 0,3631.32" />
        <g
           id="g34">
          <g
             id="g36"
             clip-path="url(#clipPath38)">
            <path
               style="fill:url(#linearGradient42);fill-opacity:1;fill-rule:nonzero;stroke:none"
               id="path56"
               inkscape:connector-curvature="0"
               d="m 117.359,5502.34 987.531,0 c 70.54,0 133.47,-49.65 155.64,-97.27 l 306.59,-758.39 644.83,-1595.08 338.64,-837.69 c 10.83,-26.83 11.99,-62.18 -16.49,-81.87 -273.79,-165.6 -594.8,-261.02 -938.15,-261.02 l -1478.591,0 0,3631.32" />
          </g>
        </g>
        <g
           id="g58">
          <g
             id="g60"
             clip-path="url(#clipPath62)">
            <path
               style="fill:url(#linearGradient66);fill-opacity:1;fill-rule:nonzero;stroke:none"
               id="path80"
               inkscape:connector-curvature="0"
               d="M 1260.53,5405.07 C 1338.74,5211.63 938.625,4628.95 781.281,4210.16 l 0.055,0 c -69.711,-168.12 -108.227,-352.46 -108.227,-545.8 0,-758.3 591.841,-1378.25 1338.771,-1423.38 l -0.04,-0.1 c 216.87,-16.2 303.6,1.34 442,17.01 46.54,5.27 82.36,-8.41 96.75,-43.98 -430.03,1063.72 -860.04,2127.43 -1290.06,3191.16" />
          </g>
        </g>
        <path
           style="fill:#000000;fill-opacity:1;fill-rule:evenodd;stroke:none"
           id="path82"
           inkscape:connector-curvature="0"
           d="m 389.797,1414.25 c 162.031,0 293.367,-131.35 293.367,-293.38 0,-162.026 -131.336,-293.37 -293.367,-293.37 l -254.688,0 0,586.75 254.688,0 z m 0,-116.64 c 88.078,0 159.484,-79.67 159.484,-177.93 0,-98.27 -71.406,-177.93 -159.484,-177.93 -3.25,0 -6.5,0.117 -9.711,0.328 l -110.492,0 0,355.532 120.203,0" />
        <path
           style="fill:#000000;fill-opacity:1;fill-rule:evenodd;stroke:none"
           id="path84"
           inkscape:connector-curvature="0"
           d="m 1045.56,1423.77 c 87.87,0 166.98,-37.43 222.32,-97.19 l -76.63,-92.22 c -35.23,45.48 -89.7,74.87 -145.69,74.87 -94.826,0 -171.701,-84.32 -171.701,-188.36 0,-104.01 76.875,-188.354 171.701,-188.354 57.14,0 112.71,30.625 147.85,77.714 l 83.14,-85.277 c -55.57,-65.43 -138.42,-106.976 -230.99,-106.976 -167.279,0 -302.888,135.609 -302.888,302.893 0,167.29 135.609,302.9 302.888,302.9" />
        <path
           style="fill:#000000;fill-opacity:1;fill-rule:evenodd;stroke:none"
           id="path86"
           inkscape:connector-curvature="0"
           d="m 992.172,608.164 c 167.278,0 302.888,-135.617 302.888,-302.898 0,-167.289 -135.61,-302.891 -302.888,-302.891 -167.297,0 -302.906,135.602 -302.906,302.891 0,167.281 135.609,302.898 302.906,302.898 z m 0,-116.93 c 95.788,0 173.458,-83.265 173.458,-185.968 0,-102.703 -77.67,-185.969 -173.458,-185.969 -95.813,0 -173.469,83.266 -173.469,185.969 0,102.703 77.656,185.968 173.469,185.968" />
        <path
           style="fill:#000000;fill-opacity:1;fill-rule:evenodd;stroke:none"
           id="path88"
           inkscape:connector-curvature="0"
           d="m 418.273,606.969 c 87.868,0 166.977,-37.422 222.305,-97.188 l -76.625,-92.218 c -35.234,45.476 -89.695,74.867 -145.68,74.867 -94.835,0 -171.71,-84.336 -171.71,-188.352 0,-104.015 76.875,-188.359 171.71,-188.359 57.149,0 112.704,30.625 147.836,77.719 l 83.149,-85.274 C 593.703,42.7266 510.852,1.17969 418.273,1.17969 251,1.17969 115.383,136.797 115.383,304.078 c 0,167.289 135.617,302.891 302.89,302.891" />
        <path
           style="fill:#000000;fill-opacity:1;fill-rule:evenodd;stroke:none"
           id="path90"
           inkscape:connector-curvature="0"
           d="m 2104.45,10.7031 131.969,0 0,586.75 -131.969,0 0,-586.75 z" />
        <path
           style="fill:#000000;fill-opacity:1;fill-rule:evenodd;stroke:none"
           id="path92"
           inkscape:connector-curvature="0"
           d="m 1392.58,597.438 131.98,0 161.46,-239.04 161.47,239.04 131.97,0 0,-586.7349 -131.97,0 0,371.2349 -88.67,-131.297 0,0 -72.8,-107.75 -161.46,239.047 0,-371.2349 -131.98,0 0,586.7349" />
        <path
           style="fill:#000000;fill-opacity:1;fill-rule:evenodd;stroke:none"
           id="path94"
           inkscape:connector-curvature="0"
           d="m 2633.34,606.969 c 87.86,0 166.97,-37.422 222.3,-97.188 l -76.62,-92.218 c -35.23,45.476 -89.71,74.867 -145.68,74.867 -94.83,0 -171.71,-84.336 -171.71,-188.352 0,-104.015 76.88,-188.359 171.71,-188.359 57.14,0 112.68,30.625 147.83,77.719 l 83.14,-85.274 C 2808.76,42.7266 2725.91,1.17969 2633.34,1.17969 c -167.29,0 -302.9,135.61731 -302.9,302.89831 0,167.289 135.61,302.891 302.9,302.891" />
        <path
           style="fill:#000000;fill-opacity:1;fill-rule:evenodd;stroke:none"
           id="path96"
           inkscape:connector-curvature="0"
           d="m 3294.5,440.219 67.06,96.539 c -55.54,46.148 -141.86,71.406 -218.47,71.406 -124.82,0 -202.21,-89.086 -202.21,-179.117 0,-217.524 314,-147.805 314,-253.031 0,-35.985 -52.43,-61.969 -88.41,-61.969 -66.35,0 -125.67,34.195 -171.74,74.164 l -76.21,-87.391 c 60.97,-58.6012 158.17,-99.64031 246.92,-99.64031 129.51,0 213.4,92.45311 213.4,187.03131 0,213.344 -310.94,154.375 -310.94,251 0,42.992 45.99,56.758 78.23,56.891 52.85,0.234 104,-23.024 148.37,-55.883" />
      </g>
    </g>
  </g>
</svg>
